<?xml version="1.0" encoding="UTF-8"?>
<svg version="1.1" xmlns="http://www.w3.org/2000/svg" width="500" height="500">
<path d="M0 0 C165 0 330 0 500 0 C500 165 500 330 500 500 C335 500 170 500 0 500 C0 335 0 170 0 0 Z " fill="#0C0C0C" transform="translate(0,0)"/>
<path d="M0 0 C165 0 330 0 500 0 C500 165 500 330 500 500 C335 500 170 500 0 500 C0 335 0 170 0 0 Z M49 49 C48.90112466 51.10915862 48.87444274 53.22169978 48.87415886 55.33317471 C48.87270542 56.00570208 48.87125198 56.67822946 48.86975449 57.37113646 C48.8660688 59.65291814 48.86959271 61.93463408 48.87301636 64.21641541 C48.87186555 65.85752397 48.8702783 67.49863228 48.86828911 69.13974005 C48.8640902 73.67145277 48.866189 78.20314461 48.86927533 82.73485744 C48.87152696 87.6135891 48.868051 92.49231704 48.86529541 97.37104797 C48.86083606 106.9374815 48.86181494 116.5039072 48.86470805 126.07034104 C48.86696157 133.84204099 48.86727483 141.61373874 48.86618423 149.38543892 C48.866031 150.48931976 48.86587777 151.59320059 48.86571989 152.73053237 C48.86540018 154.97268537 48.86507597 157.21483838 48.8647473 159.45699138 C48.86189199 180.50902286 48.86518026 201.56104999 48.87054767 222.61308075 C48.87501513 240.69542515 48.87424034 258.77776313 48.86962891 276.86010742 C48.86428297 297.83253175 48.86216734 318.80495227 48.86524117 339.77737719 C48.86555974 342.01183323 48.86587411 344.24628927 48.86618423 346.48074532 C48.86633851 347.58028479 48.86649279 348.67982426 48.86665174 349.81268312 C48.86751688 357.57883229 48.86605406 365.34497905 48.86370468 373.11112785 C48.86090624 382.57011744 48.86164585 392.02909872 48.86698543 401.48808735 C48.86962194 406.31860733 48.87062835 411.14911344 48.86733627 415.97963333 C48.86437226 420.39543367 48.86596792 424.81120719 48.87131383 429.22700507 C48.87243756 430.83063381 48.87184778 432.43426478 48.86943804 434.0378921 C48.86642871 436.20562237 48.86948416 438.37325891 48.87415886 440.54098415 C48.87432121 441.74871217 48.87448356 442.95644019 48.87465084 444.20076603 C48.80782008 446.95460157 48.80782008 446.95460157 50 449 C181.34 449 312.68 449 448 449 C448 448.34 448 447.68 448 447 C448.66 447 449.32 447 450 447 C450 315.66 450 184.32 450 49 C446.5993369 47.86644563 444.02048828 47.87464241 440.4335537 47.87415886 C439.76010741 47.87270542 439.08666112 47.87125198 438.39280736 47.86975449 C436.11995266 47.86608423 433.84716459 47.86958566 431.5743103 47.87301636 C429.93488773 47.87186495 428.29546542 47.87027729 426.65604365 47.86828911 C422.13832055 47.86409859 417.62061846 47.86618524 413.10289526 47.86927533 C408.23580626 47.87153029 403.36872096 47.86804936 398.50163269 47.86529541 C388.96254606 47.86083996 379.42346727 47.86181313 369.88438033 47.86470805 C362.13560292 47.8669627 354.38682772 47.86727434 346.63805008 47.86618423 C345.53692686 47.866031 344.43580364 47.86587777 343.30131305 47.86571989 C341.06471438 47.86540018 338.82811571 47.86507597 336.59151705 47.8647473 C315.60102623 47.86189324 294.61053977 47.86517852 273.62004967 47.87054767 C255.58914551 47.87501688 237.55824779 47.87423866 219.52734375 47.86962891 C198.61094832 47.86428399 177.69455671 47.86216661 156.77816069 47.86524117 C154.55021326 47.86555974 152.32226582 47.86587411 150.09431839 47.86618423 C148.44982924 47.86641565 148.44982924 47.86641565 146.77211808 47.86665174 C139.02701634 47.86751705 131.28191701 47.86605374 123.53681564 47.86370468 C114.10639222 47.86090745 104.67597713 47.86164335 95.24555467 47.86698543 C90.42932154 47.8696233 85.61310232 47.87062604 80.79686928 47.86733627 C76.39538761 47.86437514 71.99393287 47.86596303 67.59245367 47.87131383 C65.99294017 47.87243878 64.39342443 47.87184511 62.79391234 47.86943804 C60.63416303 47.86643505 58.47450823 47.86947746 56.31476402 47.87415886 C54.50878528 47.87440239 54.50878528 47.87440239 52.66632211 47.87465084 C50.0791339 47.69649249 50.0791339 47.69649249 49 49 Z " fill="#0C0C0C" transform="translate(0,0)"/>
<path d="M0 0 C1.00580911 -0.00218016 1.00580911 -0.00218016 2.0319376 -0.00440437 C4.30696662 -0.00809004 6.58192972 -0.00456615 8.85695839 -0.0011425 C10.49322947 -0.00229331 12.12950028 -0.00388056 13.76577055 -0.00586975 C18.28415111 -0.01006867 22.80251072 -0.00796985 27.32089138 -0.00488353 C32.18532711 -0.00263189 37.0497591 -0.00610788 41.91419411 -0.00886345 C51.45288917 -0.01332288 60.99157638 -0.01234386 70.53027175 -0.00945081 C78.28003328 -0.00719719 86.0297926 -0.00688407 93.77955437 -0.00797462 C95.4307795 -0.00820447 95.4307795 -0.00820447 97.11536271 -0.00843897 C99.35131299 -0.00875868 101.58726326 -0.00908289 103.82321353 -0.00941156 C124.81757126 -0.01226692 145.81192463 -0.00897858 166.80628164 -0.00361119 C184.83657329 0.00085566 202.86685851 0.000082 220.89715004 -0.00452995 C241.81062031 -0.00987686 262.72408676 -0.01199092 283.63755763 -0.00891769 C285.86613377 -0.00859913 288.09470991 -0.00828475 290.32328606 -0.00797462 C291.41992071 -0.00782035 292.51655536 -0.00766607 293.64642137 -0.00750712 C301.38955841 -0.00664222 309.13269303 -0.00810429 316.8758297 -0.01045418 C326.30844028 -0.01325372 335.74104253 -0.0125107 345.17365216 -0.00717343 C349.99011918 -0.00453832 354.80657231 -0.00352815 359.62303925 -0.00682259 C364.02717259 -0.0097895 368.43127907 -0.00818607 372.83540995 -0.00284503 C374.43367294 -0.00172253 376.03193816 -0.00230837 377.63019972 -0.00472082 C379.79309586 -0.00773658 381.95589851 -0.00466798 384.11878967 0 C385.92525548 0.00024353 385.92525548 0.00024353 387.76821554 0.00049198 C390.68523598 0.12584114 390.68523598 0.12584114 393.68523598 1.12584114 C393.68523598 132.46584114 393.68523598 263.80584114 393.68523598 399.12584114 C393.02523598 399.12584114 392.36523598 399.12584114 391.68523598 399.12584114 C391.68523598 399.78584114 391.68523598 400.44584114 391.68523598 401.12584114 C260.34523598 401.12584114 129.00523598 401.12584114 -6.31476402 401.12584114 C-7.74167702 398.27201514 -7.44017606 395.85893131 -7.44060516 392.66682529 C-7.4420586 391.99284448 -7.44351205 391.31886366 -7.44500953 390.62445918 C-7.44868752 388.34376466 -7.44517482 386.06313623 -7.44174767 383.78244209 C-7.44289877 382.13975778 -7.44448622 380.49707372 -7.44647491 378.8543902 C-7.45066963 374.32300621 -7.4485769 369.79164313 -7.44548869 365.26025903 C-7.44323541 360.38020073 -7.44671383 355.50014615 -7.44946861 350.62008858 C-7.45392597 341.05345926 -7.45295002 331.48683777 -7.45005597 321.92020815 C-7.44780194 314.14900026 -7.44748942 306.37779458 -7.44857979 298.60658646 C-7.44873302 297.50255239 -7.44888625 296.39851831 -7.44904413 295.26102867 C-7.44936384 293.01855146 -7.44968805 290.77607426 -7.45001672 288.53359706 C-7.45287138 267.48349904 -7.44958464 246.43340537 -7.44421636 225.38330806 C-7.43974771 207.3006574 -7.44052478 189.21801317 -7.44513512 171.13536263 C-7.45048006 150.16147571 -7.45259735 129.18759262 -7.44952285 108.21370512 C-7.44920429 105.97956344 -7.44888992 103.74542175 -7.44857979 101.51128006 C-7.44842551 100.41189486 -7.44827124 99.31250966 -7.44811229 98.17980976 C-7.44724694 90.41267824 -7.44871038 82.64554912 -7.45105934 74.87841797 C-7.45385663 65.42052196 -7.45312057 55.96263426 -7.4477786 46.50473922 C-7.44514071 41.67433619 -7.444138 36.84394703 -7.44742775 32.01354408 C-7.45038889 27.59906958 -7.44880098 23.18462193 -7.4434502 18.77014989 C-7.44232523 17.1658959 -7.44291892 15.56163967 -7.44532599 13.95738708 C-7.44832896 11.79123023 -7.44528657 9.62516761 -7.44060516 7.45901585 C-7.44044281 6.25145018 -7.44028046 5.04388451 -7.44011319 3.79972595 C-7.20439673 -1.22845798 -4.42133504 0.0005962 0 0 Z M17.68523598 25.12584114 C17.68523598 140.95584114 17.68523598 256.78584114 17.68523598 376.12584114 C133.51523598 376.12584114 249.34523598 376.12584114 368.68523598 376.12584114 C368.68523598 260.29584114 368.68523598 144.46584114 368.68523598 25.12584114 C252.85523598 25.12584114 137.02523598 25.12584114 17.68523598 25.12584114 Z " fill="#F9F9F9" transform="translate(56.31476402282715,47.87415885925293)"/>
<path d="M0 0 C11.39687062 -0.06976062 22.79368975 -0.12294303 34.19073105 -0.15543652 C39.48383928 -0.17103815 44.77680054 -0.19217511 50.06982422 -0.22631836 C55.1856555 -0.25910903 60.30134614 -0.27689431 65.41727448 -0.28463173 C67.36113954 -0.29014005 69.30499761 -0.30089569 71.24880219 -0.31719017 C88.29788041 -0.45431922 104.81486468 0.92988669 118 13 C128.22242616 24.16676114 129.61698609 36.27854369 129.140625 50.78076172 C128.49106803 61.03158259 124.59590758 71.84981804 117 79 C109.15998786 85.38660526 101.26986007 90.14170787 91 90 C91.92962886 91.73701055 92.85933356 93.47398051 93.7890625 95.2109375 C94.69676392 96.90682007 94.69676392 96.90682007 95.62280273 98.63696289 C96.96975488 101.15259104 98.31836613 103.66732042 99.66821289 106.18139648 C102.76168966 111.9445395 105.85270655 117.70849423 108.90106201 123.4956665 C109.82175102 125.24221712 110.74654657 126.98660098 111.67138672 128.73095703 C112.81379641 130.8859643 113.94997187 133.04429303 115.07861328 135.20654297 C123.04186698 150.68375727 123.04186698 150.68375727 137 160 C140.718712 160.63102496 144.21486855 160.85626083 148 161 C148 164.96 148 168.92 148 173 C144.02008891 173.10862532 140.04318622 173.18762775 136.0625 173.25 C134.94552734 173.28351563 133.82855469 173.31703125 132.67773438 173.3515625 C122.90918285 173.46614961 115.30998087 171.22877892 108.08203125 164.45703125 C99.12879694 153.8912069 93.41358007 140.18306548 87.10546875 127.96484375 C83.9604765 121.89213506 80.71555695 115.87674399 77.4375 109.875 C76.93686035 108.9569458 76.4362207 108.0388916 75.92041016 107.09301758 C73.68347308 103.008326 71.39777805 98.99629675 69 95 C59.43 94.67 49.86 94.34 40 94 C40 116.44 40 138.88 40 162 C45.94 162 51.88 162 58 162 C58 165.63 58 169.26 58 173 C38.86 173 19.72 173 0 173 C0 169.37 0 165.74 0 162 C6.27 162 12.54 162 19 162 C19 112.5 19 63 19 12 C12.73 12 6.46 12 0 12 C0 8.04 0 4.08 0 0 Z " fill="#FAFAFA" transform="translate(180,159)"/>
<path d="M0 0 C11.323125 -0.1546875 11.323125 -0.1546875 22.875 -0.3125 C25.23769043 -0.35802002 27.60038086 -0.40354004 30.03466797 -0.45043945 C31.9371601 -0.46506185 33.83966805 -0.47779836 35.7421875 -0.48828125 C36.70584229 -0.51386108 37.66949707 -0.53944092 38.66235352 -0.5657959 C45.71460623 -0.57026727 51.13785498 0.99069847 57 5 C59.40699555 7.49651286 61.31618837 9.96808996 63 13 C63.53625 13.95777344 64.0725 14.91554687 64.625 15.90234375 C66.95873889 21.54302751 66.55300686 27.68467253 66.5625 33.6875 C66.59923828 34.89083984 66.63597656 36.09417969 66.67382812 37.33398438 C66.71889773 46.6032994 64.6934524 54.58617135 58.49047852 61.74121094 C51.73587385 67.72907669 45.54357625 68.42466164 36.9140625 68.29296875 C35.97651123 68.28994751 35.03895996 68.28692627 34.07299805 68.28381348 C30.59021912 68.26818616 27.10759783 68.22630236 23.625 68.1875 C15.82875 68.125625 8.0325 68.06375 0 68 C0 45.56 0 23.12 0 0 Z " fill="#0C0C0C" transform="translate(220,172)"/>
<path d="M0 0 C6.27 0 12.54 0 19 0 C21.54781108 6.90413851 24.09291167 13.80926771 26.63549805 20.71533203 C27.50096272 23.06489091 28.36716936 25.41417662 29.23413086 27.76318359 C30.47965214 31.13828248 31.72250785 34.51435253 32.96484375 37.890625 C33.35341049 38.94179504 33.74197723 39.99296509 34.14231873 41.07598877 C34.50261673 42.05670349 34.86291473 43.03741821 35.23413086 44.04785156 C35.55167831 44.90944885 35.86922577 45.77104614 36.19639587 46.65875244 C36.90983359 48.73730611 37.46700741 50.86802964 38 53 C32.39 53 26.78 53 21 53 C20.01 50.69 19.02 48.38 18 46 C12.06 45.67 6.12 45.34 0 45 C-0.33 46.65 -0.66 48.3 -1 50 C-1.33 50.99 -1.66 51.98 -2 53 C-7.61 53 -13.22 53 -19 53 C-16.9942177 46.08968641 -14.74050208 39.35015062 -12.20703125 32.6171875 C-11.85613937 31.67690704 -11.5052475 30.73662659 -11.14372253 29.76785278 C-10.03631726 26.80243583 -8.9244907 23.83870011 -7.8125 20.875 C-7.05504398 18.84906844 -6.29787981 16.82302774 -5.54101562 14.796875 C-3.69737873 9.86331637 -1.84977827 4.9312591 0 0 Z " fill="#FAFAFA" transform="translate(350,97)"/>
<path d="M0 0 C5.61 0 11.22 0 17 0 C17 17.49 17 34.98 17 53 C11.39 53 5.78 53 0 53 C0 35.51 0 18.02 0 0 Z " fill="#FEFEFE" transform="translate(392,97)"/>
<path d="M0 0 C3.5718623 3.5718623 4 8.10186234 4 13 C1.69 13 -0.62 13 -3 13 C-2.69128878 11.20767663 -2.37790936 9.41615679 -2.0625 7.625 C-1.88847656 6.62726563 -1.71445312 5.62953125 -1.53515625 4.6015625 C-1 2 -1 2 0 0 Z " fill="#1C1C1C" transform="translate(359,116)"/>
</svg>
